/vscmnt/brussel_pixiu_data/_data_brussel/112/vsc11236/PredSimResults/SUBJ10mtu3D/worker3.mot
version=1
nRows=6
nColumns=50
inDegrees=yes
endheader
                time	         pelvis_tilt	         pelvis_list	     pelvis_rotation	           pelvis_tx	           pelvis_ty	           pelvis_tz	       hip_flexion_r	     hip_adduction_r	      hip_rotation_r	        knee_angle_r	       ankle_angle_r	         mtp_angle_r	       hip_flexion_l	     hip_adduction_l	      hip_rotation_l	        knee_angle_l	       ankle_angle_l	         mtp_angle_l	    lumbar_extension	      lumbar_bending	     lumbar_rotation	 ercspn_r/activation	 intobl_r/activation	 extobl_r/activation	    abd_r/activation	    add_r/activation	hamstrings_r/activation	bifemsh_r/activation	glut_max_r/activation	iliopsoas_r/activation	rect_fem_r/activation	  vasti_r/activation	gastroc_r/activation	 soleus_r/activation	tib_ant_r/activation	 ercspn_l/activation	 intobl_l/activation	 extobl_l/activation	    abd_l/activation	    add_l/activation	hamstrings_l/activation	bifemsh_l/activation	glut_max_l/activation	iliopsoas_l/activation	rect_fem_l/activation	  vasti_l/activation	gastroc_l/activation	 soleus_l/activation	tib_ant_l/activation	
          1.83777819	          2.84247134	          4.13594775	         13.49041732	          2.22372889	          0.80560140	         -0.06666502	         43.06064274	         -9.45068892	          2.50542574	        -75.69005534	          1.28904891	          0.21372620	         24.24793487	         -3.91898828	         -3.81401143	        -55.50398523	         33.99297685	          0.31244846	        -10.70780816	         -8.13461006	          8.93801070	          0.33220381	          0.76218047	          0.54685677	          0.06131732	          0.01017337	          0.12912389	          0.99724627	          0.01945389	          0.98858139	          0.91051271	          0.01063592	          0.08814872	          0.19280827	          0.01002369	          0.39779620	          0.21719135	          0.20947332	          0.25418747	          0.10705545	          0.81556598	          0.99806554	          0.01464540	          0.55509266	          0.09073353	          0.05281830	          0.94748755	          0.06021221	          0.46773985	
          1.85615597	          2.99884040	          2.96590772	         14.51767214	          2.23833209	          0.78307475	         -0.06069716	         45.18014744	         -8.81492302	          6.03379413	        -78.01604697	          1.50351868	         -0.27327702	         27.72932746	         -6.23845745	         -1.50201425	        -57.75784868	         32.72476754	          0.23869471	        -12.79233053	         -8.37112011	          9.66928536	          0.54440598	          0.76510497	          0.46901033	          0.04705933	          0.01021048	          0.09892959	          0.99810535	          0.01491723	          0.99473549	          0.95956172	          0.01023700	          0.06756281	          0.14764948	          0.01017419	          0.61276808	          0.16647674	          0.16063215	          0.66458734	          0.34963705	          0.90342394	          0.76658579	          0.01133761	          0.42503435	          0.06962143	          0.05568462	          0.89080425	          0.57473087	          0.35823113	
          1.87453375	          3.29936585	          2.55355563	         14.86541200	          2.25609735	          0.76017462	         -0.05630156	         47.53783740	         -7.50073501	          7.70114256	        -83.27387044	          3.23644822	         -0.65645925	         28.27052243	         -6.40477371	          1.25396326	        -61.49784831	         34.21105873	          0.57288360	        -14.45476495	         -8.89221135	          9.73961048	          0.79515822	          0.58593650	          0.35948416	          0.03608319	          0.01060447	          0.07579246	          0.99733435	          0.01148602	          0.99745662	          0.98169544	          0.01044298	          0.05179219	          0.11306892	          0.01010060	          0.46923832	          0.12771794	          0.12312466	          0.84914768	          0.58440159	          0.95623068	          0.58811445	          0.11936526	          0.32548104	          0.05349302	          0.55996577	          0.73982593	          0.45632604	          0.27452906	
          1.89291153	          3.63984606	          2.66534583	         14.84601155	          2.27629680	          0.74074495	         -0.05252971	         49.63736687	         -6.10926497	          8.82425116	        -89.32024497	          4.21861852	         -0.76854922	         28.47474748	         -6.39896599	          3.22250345	        -65.62902812	         35.65457002	          3.80411749	        -15.61350577	         -9.54747938	          9.16368817	          0.90782821	          0.55712682	          0.27536933	          0.02768060	          0.01028110	          0.05809062	          0.99676113	          0.01023716	          0.99855758	          0.99166870	          0.01049147	          0.03970782	          0.08658624	          0.01010045	          0.43693544	          0.09800429	          0.09444727	          0.93196206	          0.66983945	          0.75438430	          0.45138810	          0.09190130	          0.24928101	          0.04128863	          0.77285545	          0.60545238	          0.35139065	          0.21051728	
          1.91128932	          3.82149520	          2.96595440	         14.76337113	          2.29847055	          0.72685567	         -0.04961531	         51.22198703	         -5.06348695	          9.55761104	        -94.24349924	          3.83189779	         -0.83868156	         28.27244877	         -6.20944844	          4.98099002	        -69.13145773	         35.95652125	          8.76736005	        -16.01772346	         -9.97134815	          7.95690021	          0.95837874	          0.64645909	          0.21114270	          0.02124724	          0.01022345	          0.04450822	          0.98839172	          0.01032726	          0.99897562	          0.99616822	          0.01063180	          0.03044384	          0.06630293	          0.01008776	          0.48546284	          0.07526962	          0.07263212	          0.96899146	          0.77848460	          0.71551870	          0.34640743	          0.13320926	          0.19092772	          0.03187028	          0.76567036	          0.50165641	          0.27078572	          0.16143107	
          1.92966710	          3.74670727	          3.14237618	         14.81970316	          2.32259343	          0.71844819	         -0.04777958	         52.40416079	         -4.43690867	          9.60600562	        -97.88219208	          2.08458625	         -0.89093699	         27.33432091	         -5.73050948	          7.27452605	        -71.10765223	         35.97875101	         13.66425908	        -15.48050407	         -9.84262817	          6.02172068	          0.98029093	          0.82195681	          0.19021717	          0.01634898	          0.01017086	          0.03413804	          0.75732590	          0.01035081	          0.99905326	          0.99815988	          0.01066657	          0.02333620	          0.05076384	          0.01007978	          0.59345199	          0.05789863	          0.06915432	          0.98569101	          0.87484458	          0.87142236	          0.26584594	          0.15740105	          0.14621389	          0.02461178	          0.89383206	          0.41481949	          0.20904158	          0.12379664	
